<?xml version="1.0" encoding="UTF-8"?>
<svg width="327px" height="256px" viewBox="0 0 327 256" version="1.1" xmlns="http://www.w3.org/2000/svg" xmlns:xlink="http://www.w3.org/1999/xlink">
    <!-- Generator: Sketch 52.2 (67145) - http://www.bohemiancoding.com/sketch -->
    <title>空页面-图标-06</title>
    <desc>Created with Sketch.</desc>
    <g id="错误页面" stroke="none" stroke-width="1" fill="none" fill-rule="evenodd">
        <g id="空页面-图标-06" fill="#A9AEB7">
            <g id="分组" transform="translate(0.000000, 0.620094)">
                <path d="M99.1496689,28.8958108 C102.849652,28.8958108 106.549635,25.1977464 106.549635,21.4996819 C106.549635,17.8016175 102.849652,14.1035531 99.1496689,14.1035531 C95.4496858,14.1035531 91.7497028,17.8016175 91.7497028,21.4996819 C91.7497028,25.1977464 95.4496858,28.8958108 99.1496689,28.8958108 Z" id="路径"></path>
                <path d="M265.648905,218.426296 L265.648905,218.426297 C265.648905,223.532255 269.790255,227.671458 274.898862,227.671458 C280.007469,227.671457 284.14882,223.532255 284.14882,218.426297 C284.14882,213.320339 280.007469,209.181136 274.898862,209.181136 C269.790255,209.181136 265.648905,213.320339 265.648905,218.426297 L265.648905,218.426296 Z" id="路径"></path>
                <path d="M16.8499915,9.47629012 L16.8499915,9.47629152 C16.8499923,14.5822495 20.991342,18.7214526 26.0999491,18.7214526 C31.2085561,18.7214518 35.3499066,14.5822495 35.3499066,9.47629152 C35.3499066,4.3703335 31.2085561,0.231130423 26.0999491,0.231130423 C20.991342,0.231130423 16.8499915,4.3703335 16.8499915,9.47629152 L16.8499915,9.47629012 Z" id="路径"></path>
                <path d="M258.798998,61.258557 L258.798998,61.2585576 C258.798998,63.3009408 260.455538,64.956622 262.498981,64.956622 C264.542424,64.9566217 266.198964,63.3009408 266.198964,61.2585576 C266.198964,59.2161744 264.542424,57.5604932 262.498981,57.5604932 C260.455538,57.5604932 258.798998,59.2161744 258.798998,61.2585576 L258.798998,61.258557 Z" id="路径"></path>
                <path d="M310.5,59.9984669 L310.5,59.9984681 C310.500001,64.0832402 313.813075,67.3945969 317.899966,67.3945969 C321.986857,67.3945963 325.299932,64.0832402 325.299932,59.9984681 C325.299932,55.9136959 321.986857,52.6023392 317.899966,52.6023392 C313.813075,52.6023392 310.5,55.9136959 310.5,59.9984681 L310.5,59.9984669 Z" id="路径"></path>
                <path d="M0,240.349344 L9.85873521e-14,240.349345 C6.17102338e-07,244.434117 3.31307464,247.745474 7.39996604,247.745474 C11.4868574,247.745474 14.7999321,244.434117 14.7999321,240.349345 C14.7999321,236.264573 11.4868574,232.953216 7.39996604,232.953216 C3.31307464,232.953216 9.85873521e-14,236.264573 9.85873521e-14,240.349345 L0,240.349344 Z" id="路径-copy"></path>
                <path d="M3,109.333395 L3,109.333395 C3.00000031,111.375778 4.65654021,113.03146 6.69998302,113.03146 C8.74342583,113.031459 10.399966,111.375778 10.399966,109.333395 C10.399966,107.291012 8.74342583,105.635331 6.69998302,105.635331 C4.65654021,105.635331 3,107.291012 3,109.333395 L3,109.333395 Z" id="路径"></path>
                <path d="M28.2999321,157.408232 L28.2999321,157.408233 C28.2999324,159.450616 29.9564723,161.106297 31.9999151,161.106297 C34.0433579,161.106297 35.6998981,159.450616 35.6998981,157.408233 C35.6998981,155.36585 34.0433579,153.710169 31.9999151,153.710169 C29.9564723,153.710169 28.2999321,155.36585 28.2999321,157.408233 L28.2999321,157.408232 Z" id="路径"></path>
                <path d="M315.248684,181.218034 L315.248684,181.218035 C315.248684,184.281621 317.733494,186.765132 320.798658,186.765132 C323.863834,186.765131 326.348633,184.28161 326.348633,181.218035 L326.348633,181.218035 C326.348633,178.154448 323.863826,175.670938 320.798658,175.670938 C317.733483,175.670938 315.248684,178.154457 315.248684,181.218035 C315.248684,181.218035 315.248684,181.218035 315.248684,181.218035 L315.248684,181.218034 Z" id="路径"></path>
                <path d="M52.5,144.006244 L52.5,144.006261 C52.5000093,205.277699 102.196264,254.948194 163.499491,254.948194 C224.802717,254.948185 274.498981,205.277699 274.498981,144.006261 C274.498981,82.7348222 224.802717,33.0643275 163.499491,33.0643275 C102.196264,33.0643275 52.5,82.7348222 52.5,144.006261 L52.5,144.006244 Z M128.136308,116.920071 L128.136308,148.276584 C128.136308,149.213643 128.268576,149.856415 128.525333,150.204908 C128.782089,150.5534 129.264478,150.723774 129.964725,150.723774 L131.878729,150.723774 C133.31034,150.692797 134.049492,151.560151 134.111733,153.31036 L134.111733,162.518282 C134.111733,164.121348 133.294778,165.027421 131.653094,165.24426 C130.587169,165.368169 129.918046,165.561775 129.645725,165.832824 C129.373407,166.103874 129.233359,166.754394 129.233359,167.784376 L129.233359,173.135663 C129.357847,175.040753 128.470871,176.039763 126.58799,176.132694 L110.995896,176.132694 C109.898846,176.132694 109.190819,175.946831 108.856257,175.567362 C108.521696,175.187893 108.350524,174.382492 108.350524,173.143409 L108.350524,168.465873 C108.350524,167.195811 108.109329,166.312965 107.61916,165.809591 C107.128989,165.306213 106.288695,165.066143 105.074938,165.066143 L87.2886915,165.066143 C85.1646147,165.066143 83.6629817,164.616976 82.7993412,163.726385 C81.9357074,162.835795 81.5,161.294687 81.5,159.118552 C81.5,156.214452 81.8501228,153.945386 82.5503703,152.311362 C83.3984422,150.282363 85.8492996,146.867144 89.8873673,142.057967 L101.464724,128.218951 C107.268977,121.287819 111.556023,116.87359 114.318132,114.968493 C115.563013,114.124371 117.072427,113.427386 118.854161,112.877543 C120.635895,112.327701 122.300922,112.064393 123.857022,112.064393 C125.374217,112.064393 126.471273,112.443862 127.140396,113.195057 C127.809519,113.946249 128.136299,115.193077 128.136299,116.920045 L128.136308,116.920071 Z M108.996267,140.470351 L108.996267,138.247747 C108.996267,135.521769 108.233779,134.166522 106.716577,134.166522 C105.565061,134.166522 104.483574,134.786063 103.479889,136.025143 L96.4541305,144.598012 C94.4156376,147.107151 93.4041721,148.911566 93.4041721,149.995761 C93.4041721,150.785677 93.8320999,151.289051 94.6801771,151.513635 C95.528249,151.738218 97.6445449,151.900848 101.013503,151.993779 L104.615876,152.040245 C106.164195,152.040245 107.214565,151.869871 107.7592,151.521379 C108.303835,151.172887 108.622834,150.483646 108.716198,149.453663 C108.90293,147.788647 108.996297,144.799361 108.996297,140.470311 L108.996267,140.470351 Z M163.514211,115.19305 C167.67678,115.19305 171.691499,116.20755 175.550617,118.236548 C180.779113,120.962526 184.684911,125.012786 187.268044,130.395039 C189.182049,134.329128 190.139047,138.518766 190.139047,142.963948 C190.139047,151.072199 187.026848,157.709018 180.794681,162.882177 C176.025236,166.816266 170.586668,168.783307 164.471203,168.783307 C157.725519,168.783307 151.983487,166.591682 147.237365,162.200681 C141.619841,157.03526 138.811099,150.119637 138.811099,141.469256 C138.811099,133.028034 141.378665,126.406691 146.513788,121.597455 C151.042037,117.330363 156.706253,115.192951 163.514197,115.192951 L163.514211,115.19305 Z M162.471621,128.714507 C159.647298,128.714507 158.231249,131.107481 158.231249,135.885686 C158.231249,142.150798 159.429444,147.773111 161.833622,152.768194 C162.775066,154.704263 164.035502,155.672294 165.614945,155.672294 C168.377021,155.672294 169.761952,153.240596 169.761952,148.369468 C169.761952,145.64349 169.466294,142.731646 168.874976,139.633934 C168.283658,136.536229 167.528949,134.011601 166.618629,132.075519 C165.614945,129.930356 164.230013,128.807437 162.471621,128.714507 Z M239.374122,116.920005 L239.374122,148.276518 C239.374122,149.213577 239.50639,149.85635 239.763147,150.204842 C240.019903,150.553334 240.502292,150.723708 241.202539,150.723708 L243.116543,150.723708 C244.548154,150.692731 245.287305,151.552347 245.349546,153.310294 L245.349546,162.518216 C245.349546,164.121282 244.532592,165.027355 242.890908,165.244194 C241.824982,165.368103 241.155859,165.561709 240.883539,165.832758 C240.611221,166.103807 240.471173,166.754328 240.471173,167.78431 L240.471173,173.135598 C240.595661,175.040688 239.708685,176.039698 237.825804,176.132628 L222.23371,176.132628 C221.13666,176.132628 220.428632,175.946765 220.094071,175.567296 C219.759509,175.187827 219.596119,174.382426 219.596119,173.143343 L219.596119,168.465807 C219.596119,167.195745 219.354924,166.312899 218.864755,165.809525 C218.374584,165.306148 217.526509,165.066078 216.304971,165.066078 L198.526532,165.066078 C196.402455,165.066078 194.900822,164.616911 194.037182,163.726319 C193.173548,162.835729 192.73784,161.302366 192.73784,159.118486 C192.73784,156.214386 193.087963,153.94532 193.788211,152.311296 C194.636283,150.282297 197.08714,146.867078 201.125208,142.057901 L212.702564,128.218885 C218.506818,121.287753 222.793863,116.873524 225.555972,114.968427 C226.800853,114.124305 228.310267,113.42732 230.092001,112.877477 C231.873736,112.327635 233.530981,112.064327 235.087081,112.064327 C236.604276,112.064327 237.701332,112.443797 238.370455,113.194991 C239.039578,113.946183 239.37414,115.193011 239.37414,116.919979 L239.374122,116.920005 Z M220.226339,140.470285 L220.226339,138.247681 C220.226339,135.521704 219.463851,134.166456 217.94665,134.166456 C216.795134,134.166456 215.713646,134.785997 214.709962,136.025078 L207.691944,144.597946 C205.653451,147.107085 204.634205,148.9115 204.634205,149.995695 C204.634205,150.785611 205.062133,151.288985 205.91021,151.513569 C206.758282,151.738153 208.874578,151.900782 212.243536,151.993713 L215.845909,152.040179 C217.394228,152.040179 218.444598,151.869805 218.989233,151.521313 C219.533867,151.172821 219.852866,150.48358 219.946231,149.453597 C220.140743,147.788581 220.226329,144.799296 220.226329,140.470246 L220.226339,140.470285 Z" id="合并形状"></path>
            </g>
        </g>
    </g>
</svg>