<svg width="16" height="16" viewBox="0 0 16 16" fill="none" xmlns="http://www.w3.org/2000/svg">
<path d="M14.971 12.7591C14.971 13.9861 13.9833 14.9809 12.765 14.9809H3.23484C2.01665 14.9809 1.02893 13.9861 1.02893 12.7591V3.16023C1.02893 1.93326 2.01663 0.938507 3.23484 0.938507H12.765C13.9832 0.938507 14.971 1.93326 14.971 3.16023V12.7591Z" fill="#DB3325"/>
<path d="M6.99048 4.00911C6.99048 4.00911 6.29707 3.39274 5.68647 3.79607C5.20558 4.11372 5.10922 4.79449 5.46414 5.24859C5.69682 5.54627 6.12608 5.84629 6.91527 5.99032C7.19876 6.04207 7.49707 5.91911 7.63143 5.66418C7.79359 5.35651 7.78399 4.83375 6.99048 4.00911ZM9.0976 4.54807C9.0976 4.54807 9.62428 4.07991 10.0881 4.38626C10.4533 4.62754 10.5265 5.14463 10.2569 5.48953C10.0802 5.71563 9.75416 5.94351 9.15473 6.05291C8.9394 6.09221 8.71282 5.99881 8.61078 5.80519C8.4876 5.57149 8.49489 5.17443 9.0976 4.54807ZM3.32825 6.5368H7.81829V8.50321H3.32825V6.5368ZM8.27772 6.5368H12.7677V8.50321H8.27772V6.5368ZM4.23303 8.99557H7.81827V12.9484H4.23303V8.99557ZM8.27772 8.99557H11.8629V12.9484H8.27772V8.99557Z" fill="white"/>
</svg>
