<svg width="20" height="20" viewBox="0 0 20 20" fill="none" xmlns="http://www.w3.org/2000/svg">
<path fill-rule="evenodd" clip-rule="evenodd" d="M12 15.9998C11.744 15.9998 11.488 15.9018 11.293 15.7068L6.29301 10.7068C5.90201 10.3158 5.90201 9.68376 6.29301 9.29276L11.293 4.29276C11.684 3.90176 12.316 3.90176 12.707 4.29276C13.098 4.68376 13.098 5.31576 12.707 5.70676L8.41401 9.99976L12.707 14.2928C13.098 14.6838 13.098 15.3158 12.707 15.7068C12.512 15.9018 12.256 15.9998 12 15.9998Z" fill="#212B36"/>
<mask id="mask0" mask-type="alpha" maskUnits="userSpaceOnUse" x="5" y="3" width="9" height="13">
<path fill-rule="evenodd" clip-rule="evenodd" d="M12 15.9998C11.744 15.9998 11.488 15.9018 11.293 15.7068L6.29301 10.7068C5.90201 10.3158 5.90201 9.68376 6.29301 9.29276L11.293 4.29276C11.684 3.90176 12.316 3.90176 12.707 4.29276C13.098 4.68376 13.098 5.31576 12.707 5.70676L8.41401 9.99976L12.707 14.2928C13.098 14.6838 13.098 15.3158 12.707 15.7068C12.512 15.9018 12.256 15.9998 12 15.9998Z" fill="white"/>
</mask>
<g mask="url(#mask0)">
</g>
</svg>
