<svg width="32" height="32" viewBox="0 0 32 32" fill="none" xmlns="http://www.w3.org/2000/svg">
<path fill-rule="evenodd" clip-rule="evenodd" d="M0 16C0 24.8375 7.1625 32 16 32C24.8375 32 32 24.8375 32 16C32 7.1625 24.8375 0 16 0C7.1625 0 0 7.1625 0 16ZM17 25C17 25.5531 16.5531 26 16 26C15.4469 26 15 25.5531 15 25C15 24.4469 15.4469 24 16 24C16.5531 24 17 24.4469 17 25ZM17 21C17 21.5531 16.5531 22 16 22C15.4469 22 15 21.5531 15 21V7C15 6.44687 15.4469 6 16 6C16.5531 6 17 6.44687 17 7V21Z" fill="#FAAD14"/>
</svg>
