<svg width="158" height="40" viewBox="0 0 158 40" fill="none" xmlns="http://www.w3.org/2000/svg">
<path d="M38.4028 10.0632C35.7839 8.54214 32.6668 9.12479 32.6668 9.12479C32.6668 9.12479 31.0955 5.96917 25.4776 4.3862C23.2091 3.82172 20.8315 3.87691 18.5914 4.54604C14.8369 5.56494 10.9625 6.06966 7.07331 6.04651H5.53277C5.03686 6.0378 4.61506 6.40784 4.5571 6.90245C4.53246 7.16751 4.62049 7.43069 4.79946 7.62709C4.97843 7.8235 5.2317 7.93485 5.49683 7.9337H7.59196C8.08809 7.92709 8.51014 8.29541 8.57277 8.78964C8.5974 9.0547 8.50938 9.31788 8.33041 9.51428C8.15143 9.71069 7.89816 9.82204 7.63304 9.82089H1.98439C1.48741 9.81191 1.06399 10.1814 1.00358 10.6768C0.980573 10.9415 1.06915 11.2038 1.24778 11.3998C1.4264 11.5958 1.6787 11.7076 1.94331 11.7081H5.18358C5.67884 11.6988 6.10158 12.0655 6.16439 12.5589C6.1874 12.8235 6.09882 13.0858 5.9202 13.2818C5.74157 13.4778 5.48927 13.5897 5.22466 13.5901H3.89466C3.39768 13.5811 2.97426 13.9506 2.91385 14.446C2.88922 14.7111 2.97724 14.9743 3.15622 15.1707C3.33519 15.3671 3.58846 15.4784 3.85358 15.4773H5.90764C5.63034 15.9929 5.36331 16.5446 5.10656 17.1118C4.1235 19.3364 2.96079 21.4766 1.63007 23.5107C1.21322 24.1245 1.17357 24.9208 1.52737 25.5732C4.70403 31.5689 10.5643 35.6593 17.268 36.5602C23.9718 37.461 30.697 35.0618 35.332 30.1159C35.8252 29.5955 36 28.8481 35.789 28.1617C34.459 23.8459 32.6668 20.1437 32.5076 16.8746C32.3176 12.9765 36.1022 11.6204 38.2025 11.1667C38.4406 11.1137 38.6238 10.9226 38.6675 10.6817C38.7113 10.4408 38.6069 10.1971 38.4028 10.0632Z" fill="url(#paint0_linear)"/>
<path d="M32.6565 7.68628C31.5749 7.95925 30.6141 8.58491 29.9246 9.46519C29.8329 9.53427 29.7849 9.64724 29.7986 9.76155C29.8123 9.87585 29.8857 9.97413 29.9911 10.0194C30.0966 10.0646 30.2181 10.0499 30.3098 9.98081C31.0543 9.6064 31.8427 9.3275 32.6565 9.15065C35.0187 8.59894 32.6565 7.68628 32.6565 7.68628Z" fill="white"/>
<path d="M26.8488 14.956V12.8201H17.4361C16.8547 12.8201 16.3834 13.2982 16.3834 13.888C16.3834 14.4778 16.8547 14.956 17.4361 14.956H19.8752C20.4295 14.9952 20.8594 15.4629 20.8594 16.0265C20.8594 16.5902 20.4295 17.0579 19.8752 17.0971H13.4974C12.916 17.0971 12.4447 17.5753 12.4447 18.1651C12.4447 18.7549 12.916 19.233 13.4974 19.233H17.1588C17.5533 19.2051 17.9303 19.4028 18.136 19.7456C18.3417 20.0883 18.3417 20.5189 18.136 20.8616C17.9303 21.2044 17.5533 21.4021 17.1588 21.3742H15.649C15.0676 21.3742 14.5963 21.8523 14.5963 22.4421C14.5963 23.0319 15.0676 23.5101 15.649 23.5101H26.8488V21.3742V19.233V17.0971V14.956Z" fill="url(#paint1_linear)"/>
<path d="M23.7613 12.8201H37.4259C38.0427 12.8201 38.5501 13.2908 38.6111 13.894L38.6172 14.012V22.3136C38.6172 22.9743 38.0839 23.5098 37.4259 23.5098H23.7613C23.1033 23.5098 22.5699 22.9743 22.5699 22.3136V14.012L22.5761 13.894C22.633 13.331 23.0788 12.8834 23.6395 12.8262L23.7613 12.8201H37.4259H23.7613Z" fill="#333333"/>
<path d="M30.5938 19.082L22.809 13.2812C22.6538 13.4878 22.5691 13.7392 22.5676 13.998V22.2995C22.5676 22.9602 23.101 23.4958 23.759 23.4958H37.4236C38.0815 23.4958 38.6149 22.9602 38.6149 22.2995V13.998C38.6153 13.7397 38.5324 13.4883 38.3787 13.2812L30.5938 19.082Z" fill="url(#paint2_linear)"/>
<path d="M99.72 13.1926V26.181C99.7017 28.0228 99.0012 29.793 97.7526 31.152C96.5237 32.3412 94.8794 33.0018 93.1733 33L92.8885 32.9935H91.2015V29.6632H92.8885C93.8026 29.7309 94.7045 29.421 95.382 28.8061C95.9442 28.1304 96.2822 27.3 96.353 26.4292L96.3657 26.1908L96.3755 13.1926H99.72ZM62.459 15.0733C63.7813 16.3668 64.5088 18.111 64.6246 20.26L64.6378 20.6027L64.6772 21.3667H53.252C53.3645 22.2794 53.7759 23.1297 54.4225 23.7861C55.1489 24.5567 56.1697 24.9839 57.2309 24.9615C58.4786 25.0038 59.6785 24.5015 60.5201 23.5937L60.6737 23.4188H64.2886L64.1165 23.742C62.6066 26.5385 60.3196 27.9539 57.3686 27.9539C55.3691 28.0072 53.4426 27.2049 52.0765 25.75C50.7165 24.3509 49.97 22.4713 50.001 20.5243C49.9688 18.5578 50.7184 16.6584 52.0863 15.2398C53.4176 13.7987 55.3041 12.9931 57.2702 13.0261C59.2068 12.9811 61.079 13.7197 62.459 15.0733ZM106.084 13.0016C107.385 13.0016 108.668 13.5743 109.905 14.7114L110.137 14.9313L110.668 15.4553L108.573 17.5858L108.037 17.096C107.304 16.3956 106.615 16.0381 105.991 16.0381C105.682 16.03 105.382 16.1425 105.155 16.3516C104.953 16.5225 104.838 16.7736 104.84 17.0372C104.83 17.3355 104.956 17.6221 105.184 17.8159C105.7 18.2453 106.265 18.6135 106.866 18.913C107.843 19.3701 108.724 20.0064 109.463 20.7888C110.091 21.5182 110.426 22.4533 110.402 23.4139C110.422 24.6272 109.938 25.7948 109.065 26.6414C108.199 27.5042 107.018 27.9782 105.794 27.9539C104.963 27.9531 104.142 27.7656 103.394 27.4054C102.726 27.0885 102.128 26.6454 101.633 26.1017L101.427 25.8627L101.028 25.3729L103.04 23.1347L103.61 23.7469C104.319 24.5305 105.007 24.9076 105.715 24.9076C106.149 24.9208 106.57 24.7623 106.886 24.4669C107.176 24.2237 107.344 23.8651 107.343 23.4873C107.36 23.1546 107.224 22.8323 106.974 22.6107C106.436 22.1579 105.845 21.7715 105.214 21.4597C104.266 21.0423 103.416 20.4317 102.72 19.6672C102.129 18.9434 101.817 18.0334 101.84 17.1009C101.811 15.9937 102.254 14.9262 103.059 14.1624C103.871 13.3885 104.961 12.9705 106.084 13.0016ZM82.3584 13.0016C83.6591 13.0016 84.9425 13.5743 86.1796 14.7114L86.4111 14.9313L86.9422 15.4553L84.8471 17.5858L84.311 17.096C83.6392 16.454 83.0046 16.1001 82.4224 16.0456L82.265 16.0381H82.2748C81.9537 16.0168 81.6377 16.1264 81.3993 16.3418C81.2037 16.5175 81.0958 16.7701 81.1042 17.0323C81.0939 17.3306 81.2206 17.6172 81.4485 17.811C81.9667 18.2373 82.5328 18.6022 83.1355 18.8983C84.1119 19.3554 84.9929 19.9918 85.7323 20.7741C86.3604 21.5035 86.695 22.4386 86.6717 23.3992C86.691 24.6125 86.207 25.7801 85.334 26.6267C84.4675 27.4829 83.2886 27.9514 82.0682 27.9245C81.2369 27.9237 80.4165 27.7362 79.6681 27.376C79.0006 27.0592 78.4026 26.616 77.9069 26.0724L77.7008 25.8333L77.3024 25.3435L79.314 23.1053L79.8698 23.7224C80.578 24.506 81.2665 24.8831 81.9748 24.8831C82.4082 24.8963 82.8291 24.7378 83.1453 24.4424C83.4357 24.1992 83.6031 23.8406 83.6027 23.4628C83.6192 23.1301 83.4836 22.8079 83.2339 22.5862C82.6983 22.1464 82.1122 21.7715 81.4879 21.4695C80.5394 21.0507 79.6886 20.4403 78.9894 19.677C77.7016 18.0122 77.8487 15.6555 79.3337 14.1624C80.1456 13.3885 81.2349 12.9705 82.3584 13.0016ZM119.137 13.5746C120.38 13.5746 121.634 14.1852 122.9 15.4063L121.778 16.572C120.867 15.6675 119.955 15.2137 119.044 15.2104C118.51 15.204 117.994 15.3981 117.598 15.7541C117.206 16.081 116.978 16.5625 116.973 17.0715C116.987 17.5291 117.161 17.9675 117.465 18.3106C118.062 18.9294 118.776 19.4253 119.565 19.7701C120.906 20.4623 121.795 21.1071 122.231 21.7046C122.682 22.3247 122.926 23.0697 122.929 23.8351C122.933 24.8905 122.499 25.9006 121.729 26.6267C120.954 27.3864 119.9 27.7984 118.813 27.7678C118.039 27.7652 117.274 27.5982 116.57 27.2781C115.871 26.9737 115.263 26.4946 114.804 25.8871L115.901 24.6236C116.811 25.6325 117.76 26.1369 118.739 26.1369C119.392 26.1485 120.025 25.9081 120.505 25.466C121.391 24.7277 121.514 23.4162 120.78 22.5274C120.125 21.9481 119.385 21.4709 118.587 21.112C117.293 20.4166 116.457 19.7995 116.073 19.2509C115.652 18.6286 115.426 17.8955 115.424 17.145C115.404 16.1853 115.783 15.2601 116.472 14.5884C117.193 13.9164 118.15 13.5525 119.137 13.5746ZM152.213 13.5648C153.456 13.5648 154.71 14.1754 155.975 15.3965L154.854 16.5622C153.944 15.6659 153.034 15.2104 152.119 15.2104C151.586 15.204 151.07 15.3981 150.673 15.7541C150.284 16.0827 150.058 16.5636 150.054 17.0715C150.067 17.5291 150.241 17.9675 150.546 18.3106C151.144 18.9191 151.853 19.4079 152.636 19.7505C153.983 20.441 154.869 21.0875 155.302 21.685C155.754 22.304 155.999 23.0497 156 23.8155C156.007 24.8736 155.575 25.8876 154.805 26.6169C154.03 27.3775 152.976 27.7898 151.888 27.758C151.114 27.7554 150.35 27.5884 149.645 27.2683C148.946 26.9639 148.338 26.4848 147.88 25.8774L148.977 24.6138C149.886 25.6227 150.836 26.1271 151.814 26.1271C152.469 26.1379 153.103 25.8977 153.585 25.4562C154.012 25.1022 154.281 24.5938 154.332 24.0427C154.382 23.4916 154.211 22.943 153.856 22.5176C153.201 21.9392 152.464 21.462 151.667 21.1022C150.368 20.4068 149.532 19.7897 149.149 19.2411C148.729 18.6183 148.505 17.8853 148.504 17.1352C148.482 16.1762 148.86 15.2508 149.547 14.5786C150.268 13.9066 151.225 13.5427 152.213 13.5648ZM69.8168 13.1926V27.3417H66.4723V13.1926H69.8168ZM75.7187 13.1926V27.3417H72.3743V13.1926H75.7187ZM140.537 14.275C141.946 14.2888 143.291 14.8617 144.275 15.8667C145.457 16.9269 146.119 18.4457 146.09 20.0296V27.3221H144.275V19.9464C144.271 18.9185 143.883 17.9288 143.188 17.1695C142.51 16.4296 141.542 16.0217 140.537 16.0528C139.439 16.0466 138.381 16.4644 137.586 17.2184C136.769 17.9134 136.292 18.9254 136.278 19.9954V27.3417H134.517V19.9464C134.517 18.9141 134.121 17.9206 133.41 17.1695C132.721 16.4317 131.746 16.0249 130.735 16.0528C129.639 16.0495 128.583 16.463 127.784 17.2086C126.965 17.8864 126.483 18.8862 126.466 19.9464V27.3368H124.68V14.2897H126.466V15.8814C127.016 15.3592 127.674 14.9616 128.394 14.7158C129.139 14.4366 129.928 14.2923 130.725 14.2897C132.148 14.2962 133.51 14.8693 134.507 15.8814C134.848 16.2085 135.15 16.5733 135.407 16.9687C135.943 16.1325 136.696 15.4558 137.586 15.0096C138.495 14.529 139.508 14.2768 140.537 14.275ZM91.8753 13.1926V19.4077C91.8848 20.063 92.0932 22.1553 94.532 22.2815L94.7672 22.2874H95.1705V25.6129H94.7623C93.1191 25.6737 91.5216 25.0674 90.3359 23.933C89.2583 22.7655 88.6267 21.2621 88.5447 19.6846L88.5358 19.3881V13.1926H91.8753ZM53.7298 18.2824L53.6553 18.4673H61.0819C60.8436 17.8694 60.4456 17.3477 59.931 16.9589C59.1774 16.3783 58.2475 16.0708 57.2948 16.0871C55.7558 16.004 54.3366 16.8868 53.7298 18.2824Z" fill="white"/>
<defs>
<linearGradient id="paint0_linear" x1="-5.3948" y1="23.8768" x2="29.0046" y2="17.9129" gradientUnits="userSpaceOnUse">
<stop stop-color="#FFFF00"/>
<stop offset="1" stop-color="#79E042"/>
</linearGradient>
<linearGradient id="paint1_linear" x1="12.5885" y1="18.1651" x2="26.7358" y2="18.1651" gradientUnits="userSpaceOnUse">
<stop stop-opacity="0"/>
<stop offset="1"/>
</linearGradient>
<linearGradient id="paint2_linear" x1="30.5682" y1="39.5988" x2="30.5682" y2="-12.9073" gradientUnits="userSpaceOnUse">
<stop stop-opacity="0"/>
<stop offset="1"/>
</linearGradient>
</defs>
</svg>
