<svg width="240" height="496" viewBox="0 0 240 496" fill="none" xmlns="http://www.w3.org/2000/svg">
<path d="M197.826 0.28103C211.527 0.28103 221.988 3.94013 229.026 10.9859C236.063 18.0317 239.719 28.5069 239.719 42.2279V453.772C239.719 467.49 236.063 477.965 229.026 485.012C221.989 492.058 211.527 495.719 197.826 495.719H42.1736C28.4727 495.719 18.0111 492.058 10.9739 485.012C3.93657 477.965 0.28103 467.49 0.28103 453.772V42.2279C0.28103 28.5069 3.93696 18.0317 10.9745 10.9859C18.0119 3.94013 28.4734 0.28103 42.1736 0.28103H197.826Z" fill="#F9FAFB" stroke="#979797" stroke-width="0.562061"/>
<path d="M102.857 463.138C102.857 453.826 110.406 446.276 119.719 446.276C129.032 446.276 136.581 453.826 136.581 463.138C136.581 472.451 129.032 480 119.719 480C110.406 480 102.857 472.451 102.857 463.138Z" stroke="#E6E7E9"/>
<path fill-rule="evenodd" clip-rule="evenodd" d="M15 60H224.714L225 434H15V60Z" fill="#F0F2F5" stroke="#979797"/>
<rect x="39" y="76" width="170" height="38" rx="8" fill="#E6E7ED"/>
<path fill-rule="evenodd" clip-rule="evenodd" d="M39 100L47 110H31L39 100Z" fill="#E6E7ED"/>
</svg>
