<svg width="10" height="10" viewBox="0 0 10 10" fill="none" xmlns="http://www.w3.org/2000/svg">
<path fill-rule="evenodd" clip-rule="evenodd" d="M4.18426 9.98529H4.18421C3.87879 9.98526 3.5706 9.75328 3.5706 9.23512V4.80565L0.238821 1.127C0.140729 1.01869 0.0719062 0.9068 0.0342508 0.794426C-0.0154315 0.646161 -0.010987 0.498577 0.0470818 0.367643C0.105151 0.236697 0.211551 0.13434 0.354791 0.0716256C0.463357 0.0240986 0.592493 0 0.738614 0H9.2614C9.40752 0 9.53665 0.0240986 9.64521 0.0716368C9.78844 0.13434 9.89485 0.236697 9.95292 0.367643C10.011 0.498577 10.0154 0.646161 9.96576 0.794426C9.9281 0.9068 9.85928 1.01869 9.76119 1.127L6.42938 4.8057V7.47067C6.42938 7.97437 6.13614 8.5955 5.74728 8.91548L4.70681 9.77171C4.53461 9.91343 4.35879 9.98529 4.18426 9.98529Z" fill="#BFBFBF"/>
</svg>
