<svg width="24" height="24" viewBox="0 0 24 24" fill="none" xmlns="http://www.w3.org/2000/svg">
<path fill-rule="evenodd" clip-rule="evenodd" d="M12 4C7.589 4 4 7.589 4 12C4 16.411 7.589 20 12 20C16.411 20 20 16.411 20 12C20 7.589 16.411 4 12 4ZM10.0771 11C10.3461 9.08401 11.3161 7.48001 12.0021 6.55701C12.6891 7.47701 13.6571 9.07601 13.9241 11H10.0771ZM15.9362 11H17.9102C17.5662 8.962 16.1972 7.268 14.3472 6.479C15.0462 7.639 15.7382 9.191 15.9362 11ZM14.3472 17.521C15.0462 16.361 15.7382 14.809 15.9362 13H17.9102C17.5662 15.038 16.1972 16.732 14.3472 17.521ZM10.0762 13C10.3442 14.924 11.3122 16.524 11.9982 17.443C12.6842 16.521 13.6542 14.916 13.9232 13H10.0762ZM6.08984 13H8.06484C8.26284 14.809 8.95384 16.361 9.65384 17.521C7.80384 16.732 6.43484 15.038 6.08984 13ZM8.06484 11C8.26284 9.191 8.95384 7.639 9.65384 6.479C7.80384 7.268 6.43484 8.962 6.08984 11H8.06484Z" fill-opacity="0.85" fill="#FAFAFA"/>
</svg>
