<svg width="32" height="32" viewBox="0 0 32 32" fill="none" xmlns="http://www.w3.org/2000/svg">
<g clip-path="url(#clip0)">
<path d="M15.981 1.2904e-07C12.8206 -0.000401625 9.731 0.937322 7.10301 2.69458C4.47502 4.45184 2.42664 6.94971 1.21692 9.8723C0.00719476 12.7949 -0.309531 16.0109 0.306791 19.1137C0.923113 22.2165 2.4448 25.0666 4.67942 27.3037C6.91403 29.5408 9.76121 31.0643 12.8609 31.6816C15.9605 32.299 19.1735 31.9823 22.0934 30.7718C25.0133 29.5613 27.509 27.5112 29.2648 24.8809C31.0207 22.2505 31.9579 19.1581 31.9579 15.9946C31.9531 11.7544 30.2683 7.68924 27.2732 4.69079C24.278 1.69234 20.2171 0.00540088 15.981 1.2904e-07H15.981Z" fill="#385477"/>
<path d="M27.3015 27.36C25.0442 26.6524 20.7576 25.5246 20.1015 25.1045C19.1603 24.509 19.4598 21.2563 19.4598 21.2563L19.8097 20.9494C19.9974 20.7847 20.1161 20.5562 20.1517 20.309C20.2199 19.8349 20.3553 19.0478 20.5436 18.6887C21.0386 17.6481 21.466 16.5766 21.8231 15.4809C22.0225 15.3318 22.1844 15.1383 22.296 14.9156C22.4075 14.6929 22.4656 14.4472 22.4656 14.1981C22.4656 13.949 22.4075 13.7034 22.296 13.4807C22.1844 13.258 22.0225 13.0644 21.8231 12.9154C21.8231 12.9154 22.0655 10.6435 22.0655 9.06307C22.0655 5.74914 19.9854 3.93004 16.2489 3.93004C12.5124 3.93004 9.79252 5.47585 9.79252 9.06307C9.79252 10.6435 10.2917 12.9154 10.2917 12.9154C10.093 13.0649 9.9318 13.2587 9.82078 13.4813C9.70975 13.7039 9.65196 13.9493 9.65196 14.1981C9.65196 14.447 9.70975 14.6924 9.82078 14.915C9.9318 15.1376 10.093 15.3313 10.2917 15.4809C10.2917 15.4809 11.0394 17.8078 11.5732 18.6888C11.7817 19.0339 11.9082 19.8143 11.9691 20.2933C12.0017 20.5498 12.122 20.7885 12.3168 20.9588L12.6571 21.2563C12.6571 21.2563 12.9606 24.509 12.0133 25.1045C11.3022 25.5531 6.76504 26.736 4.76433 27.4171C2.50786 25.188 0.963754 22.3382 0.327928 19.2293C-0.307898 16.1204 -0.0067817 12.8925 1.19307 9.95512C2.39292 7.01777 4.43743 4.50338 7.06718 2.73099C9.69693 0.958596 12.7934 0.00808266 15.9637 5.13187e-05C19.134 -0.00798003 22.2352 0.926833 24.8739 2.68588C27.5126 4.44493 29.5698 6.94892 30.7845 9.88015C31.9992 12.8114 32.3166 16.0377 31.6965 19.1498C31.0764 22.262 29.5467 25.1195 27.3015 27.36Z" fill="#ACAEC4"/>
</g>
<defs>
<clipPath id="clip0">
<rect width="32" height="32" fill="white"/>
</clipPath>
</defs>
</svg>
