<svg width="24" height="24" viewBox="0 0 24 24" fill="none" xmlns="http://www.w3.org/2000/svg">
<path fill-opacity="0.65" fill-rule="evenodd" clip-rule="evenodd" d="M19 5H14.8C14.34 5 13.88 5.11 13.46 5.32L12 6.05L10.54 5.32C10.12 5.11 9.66 5 9.2 5H5C4.45 5 4 5.45 4 6V18C4 18.55 4.45 19 5 19H11C11 19.55 11.45 20 12 20C12.55 20 13 19.55 13 19H16C16.26 19 16.52 18.9 16.71 18.71L19.71 15.71C19.9 15.52 20 15.26 20 15V6C20 5.45 19.55 5 19 5ZM6 17V7H9.2C9.35 7 9.5 7.04 9.64 7.11L11 7.79V17H6ZM16 14H18V7H14.8C14.65 7 14.5 7.04 14.36 7.11L13 7.79V17H15V15C15 14.45 15.45 14 16 14Z" fill="#FAFAFA"/>
</svg>
