<svg width="100" height="100" viewBox="0 0 100 100" fill="none" xmlns="http://www.w3.org/2000/svg">
<rect width="100" height="100" fill="#F8F9FA"/>
<rect opacity="0.01" x="26" y="26" width="48" height="48" fill="black"/>
<path fill-rule="evenodd" clip-rule="evenodd" d="M64.0282 33.3276H36.0967C33.9021 33.3276 32.1064 35.1233 32.1064 37.3179V62.4249C32.1064 64.6195 33.9021 66.4151 36.0967 66.4151H64.0282C66.2228 66.4151 68.0184 64.6195 68.0184 62.4249V37.3179C68.0184 35.1233 66.2228 33.3276 64.0282 33.3276ZM40.934 37.9984C42.9474 37.9984 44.5795 39.6306 44.5795 41.644C44.5795 43.6573 42.9474 45.2895 40.934 45.2895C38.9206 45.2895 37.2885 43.6573 37.2885 41.644C37.2885 39.6306 38.9206 37.9984 40.934 37.9984ZM43.0795 51.1668L36.0967 60.4298V60.4298H64.0282L55.0502 48.1742L48.0673 57.1522L43.0795 51.1668Z" fill="#E6E7ED"/>
</svg>
