<svg width="20" height="20" viewBox="0 0 20 20" fill="none" xmlns="http://www.w3.org/2000/svg">
<path fill-rule="evenodd" clip-rule="evenodd" d="M12.0609 17.3436L8.98487 8.8886L6.93687 14.3536C6.80187 14.7126 6.47287 14.9626 6.09087 14.9976C5.70487 15.0356 5.33987 14.8456 5.14287 14.5166L2.95587 10.8716L1.83187 12.5566C1.52487 13.0156 0.903872 13.1386 0.444872 12.8336C-0.0141277 12.5266 -0.138128 11.9066 0.167872 11.4466L2.16787 8.4466C2.35687 8.1616 2.66587 7.9866 3.02387 8.0016C3.36687 8.0096 3.68087 8.1926 3.85687 8.4866L5.79187 11.7106L8.06287 5.6506C8.20987 5.2596 8.58287 5.0016 8.99987 5.0016C9.42387 5.0036 9.79687 5.2666 9.93987 5.6596L12.8859 13.7616L16.0379 2.7266C16.1589 2.3056 16.5399 2.0116 16.9789 2.0016C17.4079 1.9756 17.8109 2.2696 17.9479 2.6856L19.9479 8.6856C20.1229 9.2096 19.8399 9.7756 19.3159 9.9506C18.7879 10.1266 18.2269 9.8416 18.0519 9.3176L17.0729 6.3846L13.9619 17.2756C13.8429 17.6926 13.4689 17.9856 13.0349 18.0006C13.0229 18.0016 13.0119 18.0016 12.9999 18.0016C12.5809 18.0016 12.2039 17.7396 12.0609 17.3436Z" fill="#919EAB"/>
</svg>
