<svg width="20" height="20" viewBox="0 0 20 20" fill="none" xmlns="http://www.w3.org/2000/svg">
<path fill-rule="evenodd" clip-rule="evenodd" d="M19.6637 8.252C20.0767 8.62 20.1137 9.251 19.7467 9.665C19.5497 9.887 19.2747 10 18.9997 10C18.7637 10 18.5257 9.917 18.3357 9.748L17.9997 9.449V19C17.9997 19.552 17.5527 20 16.9997 20H2.99973C2.44673 20 1.99973 19.552 1.99973 19V9.449L1.66373 9.748C1.25073 10.112 0.618729 10.077 0.252729 9.665C-0.114271 9.251 -0.0772708 8.62 0.335729 8.252L1.99973 6.773V1C1.99973 0.448 2.44673 0 2.99973 0H6.99973C7.55273 0 7.99973 0.448 7.99973 1V1.44L9.33573 0.252C9.71473 -0.084 10.2847 -0.084 10.6637 0.252L19.6637 8.252ZM15.9997 18V7.671L9.99973 2.338L3.99973 7.671V18H5.99973V13C5.99973 12.448 6.44673 12 6.99973 12H12.9997C13.5527 12 13.9997 12.448 13.9997 13V18H15.9997ZM7.99973 18H11.9997V14H7.99973V18ZM3.99973 2V4.996L5.99973 3.218V2H3.99973Z" fill="#919EAB"/>
</svg>
