<svg width="20" height="20" viewBox="0 0 20 20" fill="none" xmlns="http://www.w3.org/2000/svg">
<path fill-rule="evenodd" clip-rule="evenodd" d="M6 20C2.691 20 0 17.309 0 14C0 10.691 2.691 8 6 8C6.467 8 6.931 8.06 7.405 8.181L15.293 0.293C15.48 0.105 15.734 0 16 0H19C19.553 0 20 0.447 20 1V7C20 7.553 19.553 8 19 8H17V11C17 11.553 16.553 12 16 12H12.414L11.819 12.595C11.94 13.069 12 13.533 12 14C12 17.309 9.309 20 6 20ZM6 10C3.794 10 2 11.794 2 14C2 16.206 3.794 18 6 18C8.206 18 10 16.206 10 14C10 13.566 9.917 13.125 9.746 12.651C9.615 12.286 9.706 11.879 9.98 11.605L11.293 10.293C11.48 10.105 11.734 10 12 10H15V7C15 6.447 15.447 6 16 6H18V2H16.414L8.395 10.02C8.121 10.293 7.713 10.384 7.349 10.254C6.875 10.083 6.434 10 6 10ZM7 14C7 14.552 6.553 15 6 15C5.448 15 5 14.552 5 14C5 13.447 5.448 13 6 13C6.553 13 7 13.447 7 14Z" fill="#919EAB"/>
</svg>
