<svg width="20" height="20" viewBox="0 0 20 20" fill="none" xmlns="http://www.w3.org/2000/svg">
<path fill-rule="evenodd" clip-rule="evenodd" d="M18.8784 1.0845C19.6014 1.8075 20.0004 2.7685 20.0004 3.7915C20.0004 4.8135 19.6014 5.7755 18.8784 6.4985L7.70739 17.6695C7.60039 17.7765 7.47439 17.8485 7.34039 17.8965C7.33139 17.8995 7.32539 17.9085 7.31639 17.9115L1.31639 19.9115C1.21239 19.9465 1.10639 19.9625 1.00039 19.9625C0.739386 19.9625 0.483385 19.8605 0.293385 19.6695C0.0253855 19.4025 -0.0686145 19.0055 0.0513855 18.6465L2.05139 12.6465C2.05439 12.6375 2.06339 12.6315 2.06639 12.6225C2.11439 12.4885 2.18639 12.3625 2.29339 12.2555L13.4644 1.0845C14.9114 -0.3615 17.4334 -0.3615 18.8784 1.0845ZM7.00039 15.5485L15.5864 6.9625L13.0004 4.3765L4.41439 12.9625L7.00039 15.5485ZM17.4644 5.0845C17.8104 4.7385 18.0004 4.2795 18.0004 3.7915C18.0004 3.3035 17.8104 2.8445 17.4644 2.4985C16.7734 1.8075 15.5694 1.8075 14.8784 2.4985L14.4144 2.9625L17.0004 5.5485L17.4644 5.0845ZM3.43739 14.8135L2.58139 17.3815L5.14939 16.5255L3.43739 14.8135Z" fill="#5C6AC4"/>
</svg>
