<svg width="20" height="20" viewBox="0 0 20 20" fill="none" xmlns="http://www.w3.org/2000/svg">
<path fill-rule="evenodd" clip-rule="evenodd" d="M11.3746 6.95353H12.6246C13.0388 6.95353 13.3746 7.28932 13.3746 7.70353C13.3746 8.11774 13.0388 8.45353 12.6246 8.45353H11.3746V9.45353C11.3746 10.0058 10.9269 10.4535 10.3746 10.4535C9.82233 10.4535 9.37461 10.0058 9.37461 9.45353V8.45353H8.12461C7.7104 8.45353 7.37461 8.11774 7.37461 7.70353C7.37461 7.28932 7.7104 6.95353 8.12461 6.95353H9.37461V6.20353H8.12461C7.7104 6.20353 7.37461 5.86774 7.37461 5.45353C7.37461 5.03932 7.7104 4.70353 8.12461 4.70353H8.9836L7.13414 1.50017C6.858 1.02187 7.02187 0.410284 7.50017 0.134142C7.97846 -0.142001 8.59005 0.0218744 8.86619 0.500167L10.3811 3.12403L11.896 0.500167C12.1721 0.0218744 12.7837 -0.142001 13.262 0.134142C13.7403 0.410284 13.9042 1.02187 13.628 1.50017L11.7786 4.70353H12.6246C13.0388 4.70353 13.3746 5.03932 13.3746 5.45353C13.3746 5.86774 13.0388 6.20353 12.6246 6.20353H11.3746V6.95353ZM17 1.72951e-08H19C19.552 1.72951e-08 20 0.447 20 1V19C20 19.369 19.797 19.708 19.472 19.882C19.324 19.961 19.162 20 19 20C18.806 20 18.613 19.943 18.445 19.832L16 18.202L13.555 19.832C13.219 20.057 12.781 20.057 12.445 19.832L10 18.202L7.555 19.832C7.219 20.057 6.781 20.057 6.445 19.832L4 18.202L1.555 19.832C1.247 20.035 0.853 20.055 0.528 19.882C0.203 19.708 0 19.369 0 19V1C0 0.447 0.448 1.72951e-08 1 1.72951e-08H3C3.552 1.72951e-08 4 0.447 4 1C4 1.553 3.552 2 3 2H2V17.132L3.445 16.168C3.781 15.943 4.219 15.943 4.555 16.168L7 17.798L9.445 16.168C9.781 15.943 10.219 15.943 10.555 16.168L13 17.798L15.445 16.168C15.781 15.943 16.219 15.943 16.555 16.168L18 17.132V2H17C16.448 2 16 1.553 16 1C16 0.447 16.448 1.72951e-08 17 1.72951e-08Z" fill="#919EAB"/>
</svg>