<svg width="20" height="20" viewBox="0 0 20 20" fill="none" xmlns="http://www.w3.org/2000/svg">
<path fill-rule="evenodd" clip-rule="evenodd" d="M18.5528 0.105364C18.8888 -0.0626362 19.2908 -0.0276362 19.5938 0.195364C19.8968 0.418364 20.0478 0.792364 19.9858 1.16336L16.9858 19.1634C16.9318 19.4904 16.7198 19.7694 16.4188 19.9074C16.2858 19.9694 16.1428 19.9994 15.9998 19.9994C15.8208 19.9994 15.6438 19.9514 15.4848 19.8574L12.3198 17.9574L8.44684 19.8944C8.30584 19.9644 8.15284 19.9994 7.99984 19.9994C7.81784 19.9994 7.63484 19.9494 7.47484 19.8504C7.17984 19.6674 6.99984 19.3464 6.99984 18.9994V14.7664L0.484839 10.8574C0.172839 10.6694 -0.0141606 10.3254 0.00083938 9.96136C0.0148394 9.59636 0.226839 9.26836 0.552839 9.10536L18.5528 0.105364ZM7.67384 12.8374L15.0898 4.07236L3.07584 10.0794L7.67384 12.8374ZM8.99984 17.3814V15.9654L10.2868 16.7384L8.99984 17.3814ZM9.41084 13.8804L15.2548 17.3864L17.4158 4.41936L9.41084 13.8804Z" fill="#919EAB"/>
</svg>
