<svg width="20" height="20" viewBox="0 0 20 20" fill="none" xmlns="http://www.w3.org/2000/svg">
<path fill-rule="evenodd" clip-rule="evenodd" d="M17 0C18.654 0 20 1.346 20 3C20 4.654 18.654 6 17 6H16V17C16 18.654 14.655 19.999 13.001 20H4C1.794 20 0 18.206 0 16V15C0 14.448 0.448 14 1 14H2V4C2 1.794 3.794 0 6 0H17ZM17 4C17.551 4 18 3.551 18 3C18 2.449 17.551 2 17 2C16.449 2 16 2.449 16 3V4H17ZM14 17V3C14 2.647 14.071 2.313 14.184 2H6C4.897 2 4 2.897 4 4V14H11C11.552 14 12 14.448 12 15V17C12 17.551 12.449 18 13 18C13.551 18 14 17.551 14 17ZM4 18H10.171C10.061 17.687 10 17.351 10 17V16H2C2 17.103 2.897 18 4 18ZM12 5C12 5.552 11.552 6 11 6H7C6.448 6 6 5.552 6 5C6 4.448 6.448 4 7 4H11C11.552 4 12 4.448 12 5ZM12 9C12 9.552 11.552 10 11 10H7C6.448 10 6 9.552 6 9C6 8.448 6.448 8 7 8H11C11.552 8 12 8.448 12 9Z" fill="#919EAB"/>
</svg>
