<svg width="20" height="20" viewBox="0 0 20 20" fill="none" xmlns="http://www.w3.org/2000/svg">
<path fill-rule="evenodd" clip-rule="evenodd" d="M19 10C19.552 10 20 10.447 20 11V19C20 19.553 19.552 20 19 20H1C0.448 20 0 19.553 0 19V11C0 10.447 0.448 10 1 10H2V1C2 0.447 2.448 0 3 0H17C17.552 0 18 0.447 18 1V10H19ZM18 18V12H17.205L10.394 14.919C10.268 14.973 10.134 15 10 15C9.866 15 9.732 14.973 9.606 14.919L2.795 12H2V18H18ZM16 2H4V10.341L10 12.912L16 10.341V2ZM7 6C6.448 6 6 5.553 6 5C6 4.447 6.448 4 7 4H13C13.552 4 14 4.447 14 5C14 5.553 13.552 6 13 6H7ZM12 8C12.552 8 13 8.447 13 9C13 9.553 12.552 10 12 10H8C7.448 10 7 9.553 7 9C7 8.447 7.448 8 8 8H12Z" fill="#5C6AC4"/>
</svg>
